<?xml version="1.0" ?><!DOCTYPE svg  PUBLIC '-//W3C//DTD SVG 1.1//EN'  'http://www.w3.org/Graphics/SVG/1.1/DTD/svg11.dtd'><svg height="40px" id="vec_x5F_personnel_2_x5C_2" style="enable-background:new 0 0 40 40;" version="1.1" viewBox="0 0 40 40" width="40px" xml:space="preserve" xmlns="http://www.w3.org/2000/svg" xmlns:xlink="http://www.w3.org/1999/xlink"><line style="fill-rule:evenodd;clip-rule:evenodd;fill:none;stroke:#000000;stroke-width:2.2;stroke-linecap:round;stroke-linejoin:round;stroke-miterlimit:22.9256;" x1="9.17" x2="9.17" y1="26.102" y2="36.878"/><line style="fill-rule:evenodd;clip-rule:evenodd;fill:none;stroke:#000000;stroke-width:2.2;stroke-linecap:round;stroke-linejoin:round;stroke-miterlimit:22.9256;" x1="14.557" x2="3.783" y1="31.49" y2="31.49"/><path d="  M26.201,16.987c4.922,1.31,8.631,5.235,9.869,9.992c0.291,1.12,0.068,2.209-0.637,3.124c-0.707,0.916-1.701,1.405-2.855,1.405  H18.109 M11.018,22.92c0.945-1.453,2.096-2.683,3.207-3.541c0.553-0.426,1.141-0.813,1.76-1.152c1.027-0.568,2.143-1.009,3.324-1.3" style="fill-rule:evenodd;clip-rule:evenodd;fill:none;stroke:#000000;stroke-width:2.2;stroke-miterlimit:22.9256;"/><path d="  M22.627,17.608c3.973,0,7.215-3.248,7.215-7.229c0-3.982-3.242-7.231-7.215-7.231s-7.213,3.249-7.213,7.231  C15.414,14.36,18.654,17.608,22.627,17.608z" style="fill-rule:evenodd;clip-rule:evenodd;fill:none;stroke:#000000;stroke-width:2.2;stroke-linecap:round;stroke-linejoin:round;stroke-miterlimit:22.9256;"/></svg>